# xmcd
# 
# Track frame offsets:
#     150
#     2617
#     17365
#     32192
#     39560
#     47927
#     58972
#     76570
# 
# Disc length: 1318
# 
# Revision: 15
# Processed by: cddbd v1.5.2PL0 Copyright (c) Steve Scherf et al.
# Submitted via: fre:ac v1.0.31
# 
DISCID=56052408
DTITLE=ラッツ&スター - BACK TO THE BASIC～The Very Best of RATS&STAR～ Disc 2 （LIVE at 代々木第一体育館）
DYEAR=1996
DGENRE=J/Pop
TTITLE0=Introduction （街角トワイライト）
TTITLE1=涙のスウィート・チェリー
TTITLE2=夢見る16歳
TTITLE3=You'll Be Mine～ランナウェイ～
TTITLE4=街角トワイライト
TTITLE5=トゥナイト
TTITLE6=め組のひと
TTITLE7=Tシャツに口紅～Chaser (SHAMA LAMA DING-DONG)
EXTD=YEAR: 1996
EXTT0=
EXTT1=
EXTT2=
EXTT3=
EXTT4=
EXTT5=
EXTT6=
EXTT7=
PLAYORDER=
